HIERARCHY
ROOT Hips
{
	OFFSET -0.001795 -0.223333 0.028219
	CHANNELS 6 Xposition Yposition Zposition Zrotation Yrotation Xrotation 
	JOINT LeftUpLeg
	{
		OFFSET 0.069520 -0.091406 -0.006815
		CHANNELS 3 Zrotation Yrotation Xrotation
		JOINT LeftLeg
		{
			OFFSET 0.034277 -0.375199 -0.004496
			CHANNELS 3 Zrotation Yrotation Xrotation
			JOINT LeftFoot
			{
				OFFSET -0.013596 -0.397961 -0.043693
				CHANNELS 3 Zrotation Yrotation Xrotation
				JOINT LeftToe
				{
					OFFSET 0.026358 -0.055791 0.119288
					CHANNELS 3 Zrotation Yrotation Xrotation
					End Site
					{
						OFFSET 0.000000 0.000000 0.000000
					}
				}
			}
		}
	}
	JOINT RightUpLeg
	{
		OFFSET -0.067670 -0.090522 -0.004320
		CHANNELS 3 Zrotation Yrotation Xrotation
		JOINT RightLeg
		{
			OFFSET -0.038290 -0.382569 -0.008850
			CHANNELS 3 Zrotation Yrotation Xrotation
			JOINT RightFoot
			{
				OFFSET 0.015774 -0.398415 -0.042312
				CHANNELS 3 Zrotation Yrotation Xrotation
				JOINT RightToe
				{
					OFFSET -0.025372 -0.048144 0.123348
					CHANNELS 3 Zrotation Yrotation Xrotation
					End Site
					{
						OFFSET 0.000000 0.000000 0.000000
					}
				}
			}
		}
	}
	JOINT Spine
	{
		OFFSET -0.002533 0.108963 -0.026696
		CHANNELS 3 Zrotation Yrotation Xrotation
		JOINT Spine1
		{
			OFFSET 0.005487 0.135180 0.001092
			CHANNELS 3 Zrotation Yrotation Xrotation
			JOINT Spine2
			{
				OFFSET 0.001457 0.052922 0.025425
				CHANNELS 3 Zrotation Yrotation Xrotation
				JOINT Neck
				{
					OFFSET -0.002778 0.213870 -0.042857
					CHANNELS 3 Zrotation Yrotation Xrotation
					JOINT Head
					{
						OFFSET 0.005152 0.064970 0.051349
						CHANNELS 3 Zrotation Yrotation Xrotation
						End Site
						{
							OFFSET 0.000000 0.000000 0.000000
						}
					}
				}
				JOINT LeftShoulder
				{
					OFFSET 0.078845 0.121749 -0.034090
					CHANNELS 3 Zrotation Yrotation Xrotation
					JOINT LeftArm
					{
						OFFSET 0.090977 0.030469 -0.008868
						CHANNELS 3 Zrotation Yrotation Xrotation
						JOINT LeftForeArm
						{
							OFFSET 0.259612 -0.012772 -0.027456
							CHANNELS 3 Zrotation Yrotation Xrotation
							JOINT LeftHand
							{
								OFFSET 0.249234 0.008986 -0.001171
								CHANNELS 3 Zrotation Yrotation Xrotation
								End Site
								{
									OFFSET 0.000000 0.000000 0.000000
								}
							}
						}
					}
				}
				JOINT RightShoulder
				{
					OFFSET -0.081759 0.118833 -0.038615
					CHANNELS 3 Zrotation Yrotation Xrotation
					JOINT RightArm
					{
						OFFSET -0.096012 0.032551 -0.009143
						CHANNELS 3 Zrotation Yrotation Xrotation
						JOINT RightForeArm
						{
							OFFSET -0.253742 -0.013329 -0.021401
							CHANNELS 3 Zrotation Yrotation Xrotation
							JOINT RightHand
							{
								OFFSET -0.255298 0.007772 -0.005559
								CHANNELS 3 Zrotation Yrotation Xrotation
								End Site
								{
									OFFSET 0.000000 0.000000 0.000000
								}
							}
						}
					}
				}
			}
		}
	}
}
MOTION
Frames: 11
Frame Time: 0.050000
0.044777 0.892321 -0.075525 0.801495 -4.725480 6.651324 10.120735 0.033120 -24.528024 -7.761980 2.889260 33.909562 10.326611 21.230766 0.667810 0.000000 0.000000 0.000000 -11.822414 1.018560 -37.746718 -0.489586 2.377778 37.508108 5.670536 13.258719 2.190270 0.000000 0.000000 0.000000 4.983067 -1.069401 11.538183 7.625339 -3.462035 -0.702015 -6.909863 3.645417 14.634759 16.371145 -14.348208 0.074344 0.000000 0.000000 0.000000 25.710810 -9.480174 2.878665 -34.461538 -56.359881 11.249426 115.877898 -3.041892 -2.733459 0.000000 0.000000 0.000000 -25.309965 -2.767948 0.622096 57.514612 47.739510 19.743394 -128.542885 19.935841 -28.595374 0.000000 0.000000 0.000000 
0.046661 0.893972 -0.075660 0.493374 -7.375299 6.316680 10.303154 0.225799 -22.588767 -8.152967 3.356939 32.645720 11.342455 23.126178 1.423792 0.000000 0.000000 0.000000 -11.275639 1.551070 -37.484780 -0.714436 2.703851 36.089432 7.430151 16.259745 3.887291 0.000000 0.000000 0.000000 5.445545 -1.051692 11.071900 7.402872 -3.387523 -0.118631 -7.018880 2.674265 14.592359 15.848739 -13.896004 0.228560 0.000000 0.000000 0.000000 25.975130 -10.379539 2.462761 -34.855577 -54.758470 11.730654 115.636400 -2.839223 -1.104933 0.000000 0.000000 0.000000 -25.000238 -2.233617 1.221637 56.581776 48.296311 18.576677 -127.704217 20.041121 -29.914749 0.000000 0.000000 0.000000 
0.048719 0.896060 -0.075288 0.236024 -9.698443 6.134378 10.355193 0.332833 -20.720109 -8.467347 3.657362 30.926750 12.162135 24.661322 1.821748 0.000000 0.000000 0.000000 -10.086745 2.156594 -36.985563 -2.141125 3.433476 34.568975 8.509393 18.939564 4.057155 0.000000 0.000000 0.000000 5.707673 -0.998249 10.359890 7.609318 -3.522987 0.795652 -7.370726 0.696000 14.196742 14.361154 -12.393584 -0.099066 0.000000 0.000000 0.000000 26.598587 -10.722896 1.855682 -36.990088 -54.123024 13.629566 116.288302 -2.947885 0.507531 0.000000 0.000000 0.000000 -25.151827 -1.522843 2.081061 56.325442 48.904022 17.447431 -126.961739 20.600385 -32.624479 0.000000 0.000000 0.000000 
0.051012 0.898665 -0.074532 -0.160390 -13.628366 5.729568 10.024820 0.407827 -17.971997 -9.013246 4.193631 28.892978 13.896689 27.548356 3.677667 0.000000 0.000000 0.000000 -8.759106 2.977689 -36.718704 -3.008481 3.985432 32.850152 10.525626 21.905018 6.134440 0.000000 0.000000 0.000000 6.436688 -0.986884 9.904624 6.843559 -3.141223 1.251291 -7.769201 -0.891392 14.612536 13.457701 -11.815961 0.835205 0.000000 0.000000 0.000000 27.090295 -12.131640 1.195203 -37.684142 -53.708074 15.070146 116.702901 -2.260750 3.599740 0.000000 0.000000 0.000000 -24.577906 -0.973471 2.900966 54.845548 49.774383 15.599957 -126.102590 21.786537 -36.513162 0.000000 0.000000 0.000000 
0.053450 0.900870 -0.073757 -0.386745 -17.162242 5.667158 9.924245 0.487514 -15.906209 -9.931677 4.688812 26.448719 15.562133 30.245436 4.992410 0.000000 0.000000 0.000000 -7.368593 3.696575 -36.382655 -4.489375 4.643379 31.244309 11.937499 24.473791 7.099193 0.000000 0.000000 0.000000 6.454914 -0.910175 9.399297 6.776688 -3.057480 1.461572 -8.489733 -3.732470 15.110083 11.355631 -9.758880 -0.508874 0.000000 0.000000 0.000000 29.379537 -12.901962 0.062469 -39.962390 -54.240550 18.333768 117.004216 0.323062 9.988776 0.000000 0.000000 0.000000 -24.228427 -0.800155 3.918898 55.013815 51.453544 14.311981 -124.251505 23.607936 -40.957608 0.000000 0.000000 0.000000 
0.055781 0.904198 -0.072983 -1.076556 -21.536423 5.812719 9.681261 0.560922 -13.709867 -9.981152 4.985324 24.749107 17.778867 33.215550 7.663930 0.000000 0.000000 0.000000 -5.536036 4.677204 -36.561559 -5.149620 5.088330 30.232037 13.385061 25.585750 9.178752 0.000000 0.000000 0.000000 7.430476 -0.920694 9.082754 6.119086 -2.674638 1.219119 -9.163006 -7.917997 15.798039 8.744207 -7.570332 -2.070748 0.000000 0.000000 0.000000 30.696038 -14.886751 -1.132322 -39.574646 -52.799277 19.766712 116.956473 3.709986 18.348171 0.000000 0.000000 0.000000 -23.355494 -0.012208 5.262117 55.396496 54.429952 12.691171 -123.624636 27.269879 -49.685642 0.000000 0.000000 0.000000 
0.057552 0.907604 -0.071791 -1.923464 -25.212986 6.537042 9.681530 0.640060 -12.171126 -10.343680 5.186883 22.719743 19.485675 35.316288 9.669867 0.000000 0.000000 0.000000 -3.482578 5.582073 -36.620107 -6.451140 5.540226 28.796701 15.440152 27.596784 11.592582 0.000000 0.000000 0.000000 7.856137 -0.904393 8.836180 6.341673 -2.689945 0.943984 -10.021436 -11.804289 16.044911 5.544564 -5.159881 -3.585677 0.000000 0.000000 0.000000 32.353975 -17.079289 -2.001144 -38.028840 -51.866304 20.497131 116.724445 6.929963 25.653363 0.000000 0.000000 0.000000 -22.696396 -0.359096 6.270934 61.476723 56.700089 13.146869 -126.319579 32.472046 -61.937878 0.000000 0.000000 0.000000 
0.058426 0.910996 -0.069547 -3.014921 -29.244371 6.945478 9.767635 0.724337 -9.917976 -10.859519 5.406452 20.481366 21.531855 37.726974 11.858095 0.000000 0.000000 0.000000 -1.639838 6.294670 -36.037922 -6.831047 5.610827 27.380656 17.037759 28.430493 13.772729 0.000000 0.000000 0.000000 8.669867 -0.924931 9.121245 5.766631 -2.367904 0.720052 -10.139145 -15.326689 15.288603 2.813352 -3.070557 -2.980120 0.000000 0.000000 0.000000 31.858062 -19.713201 -1.955682 -35.745303 -51.098905 20.324645 116.031952 8.484019 29.746212 0.000000 0.000000 0.000000 -21.239928 -0.623191 6.914431 65.164211 56.353852 11.576174 -129.504422 36.547129 -73.577166 0.000000 0.000000 0.000000 
0.058800 0.913052 -0.066555 -3.661702 -32.143871 7.370407 9.604753 0.749170 -8.471248 -11.169518 5.533372 19.028101 22.533318 38.602941 13.458948 0.000000 0.000000 0.000000 0.020608 6.661593 -35.013378 -8.098850 5.871969 25.981703 18.254073 30.156536 14.636216 0.000000 0.000000 0.000000 8.876737 -0.863978 8.517192 6.111183 -2.442102 0.689798 -11.290361 -18.284085 15.327987 0.416601 -1.469937 -4.152076 0.000000 0.000000 0.000000 32.245099 -21.194382 -2.101542 -34.467970 -50.563901 20.518158 115.248633 9.532092 32.647725 0.000000 0.000000 0.000000 -19.155120 -1.833188 6.791118 68.619526 53.760847 9.409866 -134.412344 40.481299 -87.097413 0.000000 0.000000 0.000000 
0.059154 0.914530 -0.063779 -4.197697 -34.755454 7.405560 9.323129 0.755650 -6.937332 -11.262913 5.667895 18.164919 24.189661 40.298064 15.292263 0.000000 0.000000 0.000000 1.140646 7.028720 -34.574939 -8.452166 6.066351 25.659324 19.212214 30.555675 15.862236 0.000000 0.000000 0.000000 9.037621 -0.853279 8.931043 6.175512 -2.424662 0.281487 -11.621979 -20.464170 15.397712 -1.984440 0.214287 -4.570036 0.000000 0.000000 0.000000 31.875740 -22.330149 -1.892105 -32.480242 -49.809236 19.817581 114.684939 10.854293 35.638761 0.000000 0.000000 0.000000 -17.783136 -2.154481 6.676236 67.372805 50.395916 5.895202 -135.985737 41.669626 -93.006439 0.000000 0.000000 0.000000 
0.059776 0.914650 -0.062361 -4.102622 -36.657453 7.203216 9.073672 0.779429 -6.574723 -11.681149 6.230896 18.766398 24.645316 40.992149 15.374573 0.000000 0.000000 0.000000 2.164980 7.486186 -34.680464 -9.858737 6.776681 25.890038 19.999113 31.233682 16.710737 0.000000 0.000000 0.000000 8.947692 -0.845502 9.545573 6.471227 -2.530617 -0.622361 -12.781820 -22.299245 16.308314 -3.124606 0.523644 -6.442274 0.000000 0.000000 0.000000 32.237000 -22.797599 -2.047326 -31.776629 -48.478734 19.452136 115.517305 11.415037 38.374632 0.000000 0.000000 0.000000 -16.416388 -2.527233 6.341082 65.838055 47.825919 3.503684 -135.952172 41.870412 -95.252197 0.000000 0.000000 0.000000 
